<svg id="Layer_1" data-name="Layer 1" xmlns="http://www.w3.org/2000/svg" viewBox="0 0 500 500"><defs><style>.cls-1{fill:#231f20;}</style></defs><path class="cls-1" d="M440.39,394.2l-.5-.5c-11.33-11.44-4.3-30.74,11.67-32.75,38.83-4.88,41.48-28.46,3.69-63.75a7.19,7.19,0,0,1,2.33-12c19.07-7.29,42.19-17.07,42.42-35.22C500.35,110.73,385.42-.69,250,0h0a9.6,9.6,0,0,0-8.55,4.31,10.71,10.71,0,0,0,0,12.89A9.25,9.25,0,0,0,244.36,20,11.86,11.86,0,0,1,250,30.09v.23a12.61,12.61,0,0,1-5.87,10.55,9.36,9.36,0,0,0-2.59,2.58,10.66,10.66,0,0,0-.08,13,9.3,9.3,0,0,0,3.06,2.92A11.61,11.61,0,0,1,250,69.47v.13a12.62,12.62,0,0,1-5.86,10.55,9.37,9.37,0,0,0-2.63,2.62,10.71,10.71,0,0,0-.06,13A9.61,9.61,0,0,0,250,100h0c81.56-.3,150.12,66.46,150,150,0,8.63,5.47,17.54,13.51,26.76a7.2,7.2,0,0,1-2.4,11.29c-22.76,10.72-28.83,25.25-20.69,48.89a7.25,7.25,0,0,1-6.38,9.57c-25.21,1.57-35.9,12.35-37.17,37.68a7.15,7.15,0,0,1-9.51,6.42c-24.3-8.46-38.46-2.53-49.43,20.86a7.24,7.24,0,0,1-11.4,2.36C267.33,405.63,258.47,400,250,400c-83.53.14-150.32-68.5-150-150a9.63,9.63,0,0,0-4.33-8.58,10.7,10.7,0,0,0-12.87.06,9.34,9.34,0,0,0-2.75,2.81,10.91,10.91,0,0,1-3.42,3.63,12.48,12.48,0,0,1-17.5-3.79,9.45,9.45,0,0,0-2.87-2.8,10.66,10.66,0,0,0-12.65.08,9.47,9.47,0,0,0-2.89,3A12.1,12.1,0,0,1,30.36,250h0a12.6,12.6,0,0,1-10.5-5.86,9.27,9.27,0,0,0-2.67-2.66,10.7,10.7,0,0,0-12.9,0A9.59,9.59,0,0,0,0,249.93V250C-1,384.66,110.91,500.7,250,500c17.9-.19,27.73-22.91,35-41.77a7.19,7.19,0,0,1,12-2.33c35.16,37.53,59.87,34.46,64.71-5.41,1.9-15.75,20.95-22.68,32.47-11.78,1,.92,1.92,1.84,2.86,2.79l44,44a32.06,32.06,0,0,0,45.34,0h0a32.06,32.06,0,0,0,0-45.34ZM276.72,439.83l0,0C256,499.74,245,495.3,228.69,454.3c-5.46-13.73-.17-29.73,12.8-36.78,7.67-4.18,15.74-3.88,25.2,6.69h0c2.72,2.44,5.55,5.18,8.37,8A7.24,7.24,0,0,1,276.72,439.83Zm70.11,13.32c-4.13,35.65-34.5-2.74-48.75-17.68a7.18,7.18,0,0,1-1.46-7.64c1.5-3.66,3-7.21,4.6-10.46h0c5.09-15.08,13.82-17.45,24.06-15.29a28.59,28.59,0,0,1,22.47,27.61A163.6,163.6,0,0,1,346.83,453.15ZM418.62,240c7.58-11.89,22.79-16.45,35.9-11.23,41.35,16.5,44.49,27.43-14.65,47.93l-.65.24a7.27,7.27,0,0,1-7.56-1.59C415.57,259.82,411.34,251.42,418.62,240Zm-17.16,81.84c-1.14-12,6.47-17.64,26-25.14a7.16,7.16,0,0,1,7.48,1.44c9.31,8.71,20,18.56,27.05,27.56,18.21,22.3-10.66,22.37-33.21,21.38C414.69,346.46,402.79,335.83,401.46,321.84Z"/><path class="cls-1" d="M99.18,222.26a10.72,10.72,0,1,0-14.75-3.46A10.72,10.72,0,0,0,99.18,222.26Z"/><path class="cls-1" d="M102.16,169.18a10.72,10.72,0,1,0,13.6,6.68A10.72,10.72,0,0,0,102.16,169.18Z"/><path class="cls-1" d="M125.76,160.13A10.71,10.71,0,1,0,114,150.65,10.72,10.72,0,0,0,125.76,160.13Z"/><path class="cls-1" d="M150.65,113.94a10.72,10.72,0,1,0,9.48,11.82A10.73,10.73,0,0,0,150.65,113.94Z"/><path class="cls-1" d="M182.79,95.49a10.71,10.71,0,1,0,6.67,13.6A10.7,10.7,0,0,0,182.79,95.49Z"/><path class="cls-1" d="M218.8,84.43a10.71,10.71,0,1,0,3.46,14.75A10.71,10.71,0,0,0,218.8,84.43Z"/><path class="cls-1" d="M201.7,44.85a10.72,10.72,0,1,0,12.87,8A10.73,10.73,0,0,0,201.7,44.85Z"/><path class="cls-1" d="M152.43,75.05a10.72,10.72,0,1,0,4.9-14.34A10.71,10.71,0,0,0,152.43,75.05Z"/><path class="cls-1" d="M131.62,102.3a10.72,10.72,0,1,0-15.06-1.65A10.73,10.73,0,0,0,131.62,102.3Z"/><path class="cls-1" d="M87.23,133.27a10.72,10.72,0,1,0-1.64-15.06A10.73,10.73,0,0,0,87.23,133.27Z"/><path class="cls-1" d="M60.71,157.33a10.71,10.71,0,1,0,14.34-4.9A10.73,10.73,0,0,0,60.71,157.33Z"/><path class="cls-1" d="M44.86,201.7a10.71,10.71,0,1,0,12.87-8A10.7,10.7,0,0,0,44.86,201.7Z"/><path class="cls-1" d="M189.49,26.14A10.71,10.71,0,1,0,186,11.39,10.71,10.71,0,0,0,189.49,26.14Z"/><path class="cls-1" d="M141.3,45.18a10.72,10.72,0,1,0-6.67-13.61A10.73,10.73,0,0,0,141.3,45.18Z"/><path class="cls-1" d="M99.18,73.94a10.72,10.72,0,1,0-9.49-11.82A10.72,10.72,0,0,0,99.18,73.94Z"/><path class="cls-1" d="M64.45,111a10.71,10.71,0,1,0-11.81-9.48A10.72,10.72,0,0,0,64.45,111Z"/><path class="cls-1" d="M38.51,154.91a10.72,10.72,0,1,0-13.61-6.67A10.73,10.73,0,0,0,38.51,154.91Z"/><path class="cls-1" d="M22.68,204.24a10.71,10.71,0,1,0-14.75-3.46A10.71,10.71,0,0,0,22.68,204.24Z"/><path class="cls-1" d="M75.32,234a7.14,7.14,0,1,0-10-1.2A7.14,7.14,0,0,0,75.32,234Z"/><path class="cls-1" d="M83.22,195.62a7.14,7.14,0,1,0-9.5-3.42A7.15,7.15,0,0,0,83.22,195.62Z"/><path class="cls-1" d="M99.18,160.48a7.14,7.14,0,1,0-8.53-5.4A7.14,7.14,0,0,0,99.18,160.48Z"/><path class="cls-1" d="M115.13,122.67a7.15,7.15,0,1,0,7.13-7.16A7.15,7.15,0,0,0,115.13,122.67Z"/><path class="cls-1" d="M154.74,90.81a7.14,7.14,0,1,0,5.43,8.52A7.13,7.13,0,0,0,154.74,90.81Z"/><path class="cls-1" d="M195.86,83.15a7.14,7.14,0,1,0-9.51,3.38A7.14,7.14,0,0,0,195.86,83.15Z"/><path class="cls-1" d="M224.4,66.3a7.14,7.14,0,1,0,10-1.12A7.15,7.15,0,0,0,224.4,66.3Z"/><path class="cls-1" d="M27.46,218.21a7.14,7.14,0,1,0,10,1.2A7.14,7.14,0,0,0,27.46,218.21Z"/><path class="cls-1" d="M40.09,169.58a7.14,7.14,0,1,0,9.5,3.41A7.14,7.14,0,0,0,40.09,169.58Z"/><path class="cls-1" d="M65.92,139.59a7.14,7.14,0,1,0-8.54-5.41A7.16,7.16,0,0,0,65.92,139.59Z"/><path class="cls-1" d="M94.37,102.16A7.14,7.14,0,1,0,87.21,95,7.15,7.15,0,0,0,94.37,102.16Z"/><path class="cls-1" d="M130.44,71.67A7.14,7.14,0,1,0,125,63.16,7.14,7.14,0,0,0,130.44,71.67Z"/><path class="cls-1" d="M173,49.57a7.14,7.14,0,1,0-3.39-9.51A7.14,7.14,0,0,0,173,49.57Z"/><path class="cls-1" d="M221,37.32a7.14,7.14,0,1,0-1.13-10A7.15,7.15,0,0,0,221,37.32Z"/></svg>